<svg width="32" height="32" viewBox="0 0 32 32" fill="none" xmlns="http://www.w3.org/2000/svg">
<g clip-path="url(#clip0_736_1036)">
<path d="M23.6093 2.27603C23.7367 2.15303 23.8383 2.0059 23.9081 1.84323C23.978 1.68056 24.0148 1.5056 24.0163 1.32856C24.0179 1.15152 23.9841 0.975951 23.9171 0.81209C23.8501 0.648228 23.7511 0.499358 23.6259 0.374167C23.5007 0.248977 23.3518 0.149972 23.1879 0.0829306C23.0241 0.0158894 22.8485 -0.0178459 22.6715 -0.0163075C22.4944 -0.0147691 22.3195 0.0220139 22.1568 0.0918926C21.9941 0.161771 21.847 0.263346 21.724 0.390693L10.828 11.2867C9.57983 12.5377 8.87885 14.2328 8.87885 16C8.87885 17.7672 9.57983 19.4623 10.828 20.7134L21.724 31.6094C21.9755 31.8522 22.3123 31.9866 22.6619 31.9836C23.0115 31.9806 23.3459 31.8403 23.5931 31.5931C23.8403 31.3459 23.9805 31.0115 23.9836 30.6619C23.9866 30.3123 23.8522 29.9755 23.6093 29.724L12.7133 18.828C11.9635 18.0779 11.5422 17.0607 11.5422 16C11.5422 14.9394 11.9635 13.9221 12.7133 13.172L23.6093 2.27603Z" fill="#2A6CEA"/>
</g>
<defs>
<clipPath id="clip0_736_1036">
<rect width="32" height="32" fill="white" transform="matrix(-1 0 0 -1 32 32)"/>
</clipPath>
</defs>
</svg>
