<svg width="32" height="32" viewBox="0 0 32 32" fill="none" xmlns="http://www.w3.org/2000/svg">
<g clip-path="url(#clip0_736_1036)">
<path d="M8.39066 29.724C8.26332 29.847 8.16174 29.9941 8.09186 30.1568C8.02198 30.3194 7.9852 30.4944 7.98366 30.6714C7.98212 30.8485 8.01586 31.024 8.0829 31.1879C8.14994 31.3518 8.24895 31.5006 8.37414 31.6258C8.49933 31.751 8.6482 31.85 8.81206 31.9171C8.97592 31.9841 9.15149 32.0178 9.32853 32.0163C9.50557 32.0148 9.68053 31.978 9.8432 31.9081C10.0059 31.8382 10.153 31.7367 10.276 31.6093L21.172 20.7133C22.4202 19.4623 23.1212 17.7672 23.1212 16C23.1212 14.2328 22.4202 12.5377 21.172 11.2866L10.276 0.39064C10.0245 0.147762 9.68772 0.0133699 9.33813 0.0164078C8.98853 0.0194457 8.65412 0.159671 8.4069 0.406882C8.15969 0.654093 8.01947 0.988509 8.01643 1.33811C8.01339 1.6877 8.14779 2.0245 8.39066 2.27597L19.2867 13.172C20.0365 13.9221 20.4578 14.9393 20.4578 16C20.4578 17.0606 20.0365 18.0779 19.2867 18.828L8.39066 29.724Z" fill="#2A6CEA"/>
</g>
<defs>
<clipPath id="clip0_736_1036">
<rect width="32" height="32" fill="white"/>
</clipPath>
</defs>
</svg>
