<svg width="32" height="32" viewBox="0 0 32 32" fill="none" xmlns="http://www.w3.org/2000/svg">
<path d="M8.16104 29.724C7.91816 29.9755 7.78377 30.3123 7.78681 30.6619C7.78985 31.0115 7.93007 31.3459 8.17728 31.5931C8.42449 31.8403 8.75891 31.9806 9.10851 31.9836C9.4581 31.9866 9.79491 31.8522 10.0464 31.6094L20.9424 20.7134C22.1922 19.4632 22.8943 17.7678 22.8943 16C22.8943 14.2323 22.1922 12.5369 20.9424 11.2867L10.0464 0.390694C9.79491 0.147816 9.4581 0.013422 9.10851 0.0164604C8.75891 0.0194988 8.42449 0.159725 8.17728 0.406937C7.93007 0.654146 7.78985 0.988564 7.78681 1.33816C7.78377 1.68776 7.91816 2.02456 8.16104 2.27603L19.057 13.172C19.8069 13.9221 20.2282 14.9394 20.2282 16C20.2282 17.0607 19.8069 18.0779 19.057 18.828L8.16104 29.724Z" fill="#C2C8CD"/>
</svg>
